999
dxfrw 0.5.4
0
SECTION
2
HEADER
9
$ACADVER
1
AC1021
9
$HANDSEED
5
20000
9
$DWGCODEPAGE
3
ANSI_1252
9
$INSBASE
10
0
20
0
30
0
9
$EXTMIN
10
1e+020
20
1e+020
30
1e+020
9
$EXTMAX
10
-1e+020
20
-1e+020
30
-1e+020
9
$LIMMIN
10
0
20
0
9
$LIMMAX
10
420
20
297
9
$ORTHOMODE
70
0
9
$LTSCALE
40
1
9
$TEXTSTYLE
7
STANDARD
9
$DIMASZ
40
2.5
9
$DIMEXO
40
0.625
9
$DIMEXE
40
1.25
9
$DIMTXT
40
2.5
9
$DIMTSZ
40
0
9
$DIMAUNIT
70
0
9
$DIMADEC
70
0
9
$DIMSTYLE
2
STANDARD
9
$DIMGAP
40
0.625
9
$DIMTIH
70
0
9
$LUNITS
70
2
9
$LUPREC
70
4
9
$AUNITS
70
0
9
$AUPREC
70
2
9
$SPLINESEGS
70
8
9
$SNAPSTYLE
70
0
9
$PINSBASE
10
0
20
0
30
0
9
$PLIMMIN
10
0
20
0
9
$PLIMMAX
10
420
20
297
9
$INSUNITS
70
4
9
$PSVPSCALE
40
0
0
ENDSEC
0
SECTION
2
CLASSES
0
ENDSEC
0
SECTION
2
TABLES
0
TABLE
2
VPORT
5
8
330
0
100
AcDbSymbolTable
70
1
0
VPORT
5
31
330
2
100
AcDbSymbolTableRecord
100
AcDbViewportTableRecord
2
*ACTIVE
70
0
10
0
20
0
11
1
21
1
12
206
22
93
13
0
23
0
14
10
24
10
15
10
25
10
16
0
26
0
36
1
17
0
27
0
37
0
40
198.5
41
2.13853904282
42
50
43
0
44
0
50
0
51
0
71
0
72
100
73
1
74
3
75
0
76
1
77
0
78
0
281
0
65
1
110
0
120
0
130
0
111
1
121
0
131
0
112
0
122
1
132
0
79
0
146
0
348
10020
60
7
61
5
292
1
282
1
141
0
142
0
63
250
421
3358443
0
ENDTAB
0
TABLE
2
LTYPE
5
5
330
0
100
AcDbSymbolTable
70
4
0
LTYPE
5
14
330
5
100
AcDbSymbolTableRecord
100
AcDbLinetypeTableRecord
2
ByBlock
70
0
3

72
65
73
0
40
0
0
LTYPE
5
15
330
5
100
AcDbSymbolTableRecord
100
AcDbLinetypeTableRecord
2
ByLayer
70
0
3

72
65
73
0
40
0
0
LTYPE
5
16
330
5
100
AcDbSymbolTableRecord
100
AcDbLinetypeTableRecord
2
Continuous
70
0
3
Solid line
72
65
73
0
40
0
0
LTYPE
5
32
330
5
100
AcDbSymbolTableRecord
100
AcDbLinetypeTableRecord
2
DOT
70
0
3
Dot . . . . . . . . . . . . . . . . . . . . . .
72
65
73
2
40
6.35
49
0
74
0
49
-6.35
74
0
0
LTYPE
5
33
330
5
100
AcDbSymbolTableRecord
100
AcDbLinetypeTableRecord
2
DOT2
70
0
3
Dot (.5x) .....................................
72
65
73
2
40
3.175
49
0
74
0
49
-3.175
74
0
0
LTYPE
5
34
330
5
100
AcDbSymbolTableRecord
100
AcDbLinetypeTableRecord
2
DOTX2
70
0
3
Dot (2x) .  .  .  .  .  .  .  .  .  .  .  .  .
72
65
73
2
40
12.7
49
0
74
0
49
-12.7
74
0
0
LTYPE
5
35
330
5
100
AcDbSymbolTableRecord
100
AcDbLinetypeTableRecord
2
DASHED
70
0
3
Dot . . . . . . . . . . . . . . . . . . . . . .
72
65
73
2
40
19.05
49
12.7
74
0
49
-6.35
74
0
0
LTYPE
5
36
330
5
100
AcDbSymbolTableRecord
100
AcDbLinetypeTableRecord
2
DASHED2
70
0
3
Dashed (.5x) _ _ _ _ _ _ _ _ _ _ _ _ _ _ _ _ _
72
65
73
2
40
9.525
49
6.35
74
0
49
-3.175
74
0
0
LTYPE
5
37
330
5
100
AcDbSymbolTableRecord
100
AcDbLinetypeTableRecord
2
DASHEDX2
70
0
3
Dashed (2x) ____  ____  ____  ____  ____  ___
72
65
73
2
40
38.1
49
25.4
74
0
49
-12.7
74
0
0
LTYPE
5
38
330
5
100
AcDbSymbolTableRecord
100
AcDbLinetypeTableRecord
2
DASHDOT
70
0
3
Dash dot __ . __ . __ . __ . __ . __ . __ . __
72
65
73
4
40
25.4
49
12.7
74
0
49
-6.35
74
0
49
0
74
0
49
-6.35
74
0
0
LTYPE
5
39
330
5
100
AcDbSymbolTableRecord
100
AcDbLinetypeTableRecord
2
DASHDOT2
70
0
3
Dash dot (.5x) _._._._._._._._._._._._._._._.
72
65
73
4
40
12.7
49
6.35
74
0
49
-3.175
74
0
49
0
74
0
49
-3.175
74
0
0
LTYPE
5
3A
330
5
100
AcDbSymbolTableRecord
100
AcDbLinetypeTableRecord
2
DASHDOTX2
70
0
3
Dash dot (2x) ____  .  ____  .  ____  .  ___
72
65
73
4
40
50.8
49
25.4
74
0
49
-12.7
74
0
49
0
74
0
49
-12.7
74
0
0
LTYPE
5
3B
330
5
100
AcDbSymbolTableRecord
100
AcDbLinetypeTableRecord
2
DIVIDE
70
0
3
Divide ____ . . ____ . . ____ . . ____ . . ____
72
65
73
6
40
31.75
49
12.7
74
0
49
-6.35
74
0
49
0
74
0
49
-6.35
74
0
49
0
74
0
49
-6.35
74
0
0
LTYPE
5
3C
330
5
100
AcDbSymbolTableRecord
100
AcDbLinetypeTableRecord
2
DIVIDE2
70
0
3
Divide (.5x) __..__..__..__..__..__..__..__.._
72
65
73
6
40
15.875
49
6.35
74
0
49
-3.175
74
0
49
0
74
0
49
-3.175
74
0
49
0
74
0
49
-3.175
74
0
0
LTYPE
5
3D
330
5
100
AcDbSymbolTableRecord
100
AcDbLinetypeTableRecord
2
DIVIDEX2
70
0
3
Divide (2x) ________  .  .  ________  .  .  _
72
65
73
6
40
63.5
49
25.4
74
0
49
-12.7
74
0
49
0
74
0
49
-12.7
74
0
49
0
74
0
49
-12.7
74
0
0
LTYPE
5
3E
330
5
100
AcDbSymbolTableRecord
100
AcDbLinetypeTableRecord
2
BORDER
70
0
3
Border __ __ . __ __ . __ __ . __ __ . __ __ .
72
65
73
6
40
44.45
49
12.7
74
0
49
-6.35
74
0
49
12.7
74
0
49
-6.35
74
0
49
0
74
0
49
-6.35
74
0
0
LTYPE
5
3F
330
5
100
AcDbSymbolTableRecord
100
AcDbLinetypeTableRecord
2
BORDER2
70
0
3
Border (.5x) __.__.__.__.__.__.__.__.__.__.__.
72
65
73
6
40
22.225
49
6.35
74
0
49
-3.175
74
0
49
6.35
74
0
49
-3.175
74
0
49
0
74
0
49
-3.175
74
0
0
LTYPE
5
40
330
5
100
AcDbSymbolTableRecord
100
AcDbLinetypeTableRecord
2
BORDERX2
70
0
3
Border (2x) ____  ____  .  ____  ____  .  ___
72
65
73
6
40
88.9
49
25.4
74
0
49
-12.7
74
0
49
25.4
74
0
49
-12.7
74
0
49
0
74
0
49
-12.7
74
0
0
LTYPE
5
41
330
5
100
AcDbSymbolTableRecord
100
AcDbLinetypeTableRecord
2
CENTER
70
0
3
Center ____ _ ____ _ ____ _ ____ _ ____ _ ____
72
65
73
4
40
50.8
49
31.75
74
0
49
-6.35
74
0
49
6.35
74
0
49
-6.35
74
0
0
LTYPE
5
42
330
5
100
AcDbSymbolTableRecord
100
AcDbLinetypeTableRecord
2
CENTER2
70
0
3
Center (.5x) ___ _ ___ _ ___ _ ___ _ ___ _ ___
72
65
73
4
40
28.575
49
19.05
74
0
49
-3.175
74
0
49
3.175
74
0
49
-3.175
74
0
0
LTYPE
5
43
330
5
100
AcDbSymbolTableRecord
100
AcDbLinetypeTableRecord
2
CENTERX2
70
0
3
Center (2x) ________  __  ________  __  _____
72
65
73
4
40
101.6
49
63.5
74
0
49
-12.7
74
0
49
12.7
74
0
49
-12.7
74
0
0
ENDTAB
0
TABLE
2
LAYER
5
2
330
0
100
AcDbSymbolTable
70
1
0
LAYER
5
10
330
2
100
AcDbSymbolTableRecord
100
AcDbLayerTableRecord
2
0
70
0
62
7
6
CONTINUOUS
370
0
390
F
0
ENDTAB
0
TABLE
2
STYLE
5
3
330
0
100
AcDbSymbolTable
70
3
0
STYLE
5
44
330
2
100
AcDbSymbolTableRecord
100
AcDbTextStyleTableRecord
2
Standard
70
0
40
0
41
1
50
0
71
0
42
1
3
txt
4

0
ENDTAB
0
TABLE
2
VIEW
5
6
330
0
100
AcDbSymbolTable
70
0
0
ENDTAB
0
TABLE
2
UCS
5
7
330
0
100
AcDbSymbolTable
70
0
0
ENDTAB
0
TABLE
2
APPID
5
9
330
0
100
AcDbSymbolTable
70
1
0
APPID
5
12
330
9
100
AcDbSymbolTableRecord
100
AcDbRegAppTableRecord
2
ACAD
70
0
0
ENDTAB
0
TABLE
2
DIMSTYLE
5
A
330
0
100
AcDbSymbolTable
70
1
100
AcDbDimStyleTable
71
1
0
DIMSTYLE
105
45
330
A
100
AcDbSymbolTableRecord
100
AcDbDimStyleTableRecord
2
Standard
70
0
40
1
41
2.5
42
0.625
43
0.38
44
1.25
45
0
46
0
47
0
48
0
140
2.5
141
0.09
142
0
143
25.4
144
1
145
0
146
1
147
0.625
148
0
71
0
72
0
73
0
74
1
75
0
76
0
77
0
78
0
79
0
170
0
171
2
172
0
173
0
174
0
175
0
176
0
177
0
178
0
179
0
271
4
272
4
273
2
274
2
275
0
276
0
277
2
278
46
279
0
280
0
281
0
282
0
283
1
284
0
285
0
286
0
288
0
289
3
340
Standard
341

371
-2
372
-2
0
ENDTAB
0
TABLE
2
BLOCK_RECORD
5
1
330
0
100
AcDbSymbolTable
70
2
0
BLOCK_RECORD
5
1F
330
1
100
AcDbSymbolTableRecord
100
AcDbBlockTableRecord
2
*Model_Space
70
0
280
1
281
0
0
BLOCK_RECORD
5
1E
330
1
100
AcDbSymbolTableRecord
100
AcDbBlockTableRecord
2
*Paper_Space
70
0
280
1
281
0
0
ENDTAB
0
ENDSEC
0
SECTION
2
BLOCKS
0
BLOCK
5
20
330
1F
100
AcDbEntity
8
0
100
AcDbBlockBegin
2
*Model_Space
70
0
10
0
20
0
30
0
3
*Model_Space
1

0
ENDBLK
5
21
330
1F
100
AcDbEntity
8
0
100
AcDbBlockEnd
0
BLOCK
5
1C
330
1B
100
AcDbEntity
8
0
100
AcDbBlockBegin
2
*Paper_Space
70
0
10
0
20
0
30
0
3
*Paper_Space
1

0
ENDBLK
5
1D
330
1F
100
AcDbEntity
8
0
100
AcDbBlockEnd
0
ENDSEC
0
SECTION
2
ENTITIES
0
LWPOLYLINE
5
46
100
AcDbEntity
8
0
6
ByLayer
62
256
370
-1
100
AcDbPolyline
90
77
70
0
43
0
10
0.00
20
-7.03
10
0.02
20
-7.17
10
0.08
20
-7.31
10
0.16
20
-7.43
10
0.26
20
-7.51
10
0.40
20
-7.55
10
0.63
20
-7.56
10
0.84
20
-7.56
10
0.88
20
-7.55
10
1.14
20
-7.55
10
1.18
20
-7.54
10
1.49
20
-7.52
10
1.53
20
-7.52
10
2.01
20
-7.47
10
2.53
20
-7.38
10
3.04
20
-7.26
10
3.48
20
-7.12
10
3.86
20
-6.95
10
4.20
20
-6.77
10
4.58
20
-6.53
10
4.87
20
-6.31
10
5.08
20
-6.11
10
5.24
20
-5.93
10
5.41
20
-5.69
10
5.50
20
-5.48
10
5.55
20
-5.27
10
5.57
20
-5.09
10
5.56
20
-4.92
10
5.52
20
-4.72
10
5.45
20
-4.51
10
5.32
20
-4.28
10
5.19
20
-4.11
10
5.04
20
-3.96
10
4.89
20
-3.86
10
4.89
20
-3.84
10
5.13
20
-3.67
10
5.38
20
-3.46
10
5.62
20
-3.22
10
5.81
20
-2.97
10
5.96
20
-2.71
10
6.08
20
-2.42
10
6.16
20
-2.16
10
6.20
20
-1.93
10
6.21
20
-1.71
10
6.21
20
-1.67
10
6.20
20
-1.53
10
6.15
20
-1.33
10
6.07
20
-1.15
10
5.96
20
-0.97
10
5.83
20
-0.82
10
5.65
20
-0.64
10
5.43
20
-0.48
10
5.23
20
-0.37
10
5.03
20
-0.28
10
4.79
20
-0.21
10
4.54
20
-0.17
10
4.35
20
-0.16
10
4.17
20
-0.15
10
4.13
20
-0.16
10
3.90
20
-0.16
10
3.86
20
-0.16
10
3.59
20
-0.18
10
3.55
20
-0.18
10
3.25
20
-0.22
10
3.03
20
-0.26
10
2.87
20
-0.29
10
2.63
20
-0.35
10
2.47
20
-0.42
10
2.32
20
-0.51
10
2.22
20
-0.60
10
2.12
20
-0.73
10
2.02
20
-0.95
10
1.90
20
-1.29
10
1.63
20
-2.15
10
1.57
20
-2.33
10
0.02
20
-6.90
10
0.01
20
-7.00
10
0.00
20
-7.03
0
LWPOLYLINE
5
47
100
AcDbEntity
8
0
6
ByLayer
62
256
370
-1
100
AcDbPolyline
90
28
70
0
43
0
10
1.47
20
-6.28
10
1.47
20
-6.30
10
1.75
20
-6.28
10
1.79
20
-6.28
10
2.18
20
-6.23
10
2.76
20
-6.13
10
3.42
20
-5.96
10
3.79
20
-5.84
10
4.03
20
-5.72
10
4.15
20
-5.63
10
4.21
20
-5.56
10
4.25
20
-5.46
10
4.25
20
-5.32
10
4.22
20
-5.21
10
4.16
20
-5.10
10
4.06
20
-4.98
10
3.86
20
-4.84
10
3.63
20
-4.72
10
3.43
20
-4.66
10
3.26
20
-4.63
10
2.84
20
-4.63
10
2.80
20
-4.62
10
2.62
20
-4.62
10
2.57
20
-4.62
10
2.43
20
-4.62
10
2.39
20
-4.61
10
2.05
20
-4.60
10
1.48
20
-6.27
10
1.47
20
-6.28
0
LWPOLYLINE
5
48
100
AcDbEntity
8
0
6
ByLayer
62
256
370
-1
100
AcDbPolyline
90
29
70
0
43
0
10
2.48
20
-3.32
10
2.48
20
-3.34
10
2.82
20
-3.36
10
3.03
20
-3.37
10
3.07
20
-3.36
10
3.33
20
-3.34
10
3.67
20
-3.28
10
3.96
20
-3.19
10
4.17
20
-3.10
10
4.39
20
-2.95
10
4.53
20
-2.83
10
4.65
20
-2.70
10
4.75
20
-2.55
10
4.83
20
-2.36
10
4.86
20
-2.23
10
4.86
20
-2.07
10
4.81
20
-1.94
10
4.72
20
-1.80
10
4.56
20
-1.64
10
4.39
20
-1.53
10
4.22
20
-1.46
10
4.06
20
-1.42
10
3.85
20
-1.40
10
3.42
20
-1.40
10
3.38
20
-1.40
10
3.16
20
-1.40
10
3.13
20
-1.41
10
2.63
20
-2.91
10
2.54
20
-3.15
10
2.48
20
-3.32
0
LWPOLYLINE
5
49
100
AcDbEntity
8
0
6
ByLayer
62
256
370
-1
100
AcDbPolyline
90
88
70
0
43
0
10
6.04
20
-6.02
10
6.04
20
-6.25
10
6.06
20
-6.33
10
6.09
20
-6.50
10
6.15
20
-6.68
10
6.24
20
-6.83
10
6.36
20
-6.99
10
6.50
20
-7.12
10
6.69
20
-7.26
10
6.93
20
-7.38
10
7.19
20
-7.46
10
7.45
20
-7.51
10
7.72
20
-7.54
10
8.06
20
-7.55
10
8.10
20
-7.55
10
8.31
20
-7.54
10
8.35
20
-7.54
10
8.61
20
-7.51
10
8.98
20
-7.43
10
9.32
20
-7.33
10
9.65
20
-7.20
10
9.95
20
-7.05
10
10.16
20
-6.90
10
10.30
20
-6.77
10
10.43
20
-6.61
10
10.51
20
-6.43
10
10.55
20
-6.29
10
10.56
20
-6.21
10
10.54
20
-6.13
10
10.50
20
-6.06
10
10.42
20
-6.00
10
10.31
20
-5.97
10
10.13
20
-5.96
10
9.95
20
-6.00
10
9.71
20
-6.09
10
9.33
20
-6.27
10
9.03
20
-6.36
10
8.75
20
-6.41
10
8.53
20
-6.43
10
8.29
20
-6.44
10
8.24
20
-6.43
10
8.09
20
-6.42
10
7.86
20
-6.37
10
7.65
20
-6.29
10
7.48
20
-6.17
10
7.36
20
-6.04
10
7.31
20
-5.97
10
7.34
20
-5.95
10
8.89
20
-5.36
10
9.75
20
-5.01
10
10.16
20
-4.83
10
10.42
20
-4.69
10
10.67
20
-4.51
10
10.85
20
-4.34
10
10.96
20
-4.22
10
11.08
20
-4.04
10
11.15
20
-3.87
10
11.21
20
-3.67
10
11.22
20
-3.49
10
11.22
20
-3.37
10
11.18
20
-3.23
10
11.12
20
-3.10
10
11.02
20
-2.98
10
10.89
20
-2.86
10
10.74
20
-2.77
10
10.54
20
-2.69
10
10.29
20
-2.62
10
10.01
20
-2.58
10
9.74
20
-2.56
10
9.56
20
-2.56
10
9.51
20
-2.56
10
9.32
20
-2.57
10
9.24
20
-2.58
10
9.01
20
-2.62
10
8.72
20
-2.69
10
8.45
20
-2.79
10
8.16
20
-2.93
10
7.88
20
-3.11
10
7.60
20
-3.32
10
7.33
20
-3.57
10
7.07
20
-3.83
10
6.84
20
-4.13
10
6.61
20
-4.48
10
6.42
20
-4.82
10
6.27
20
-5.15
10
6.14
20
-5.51
10
6.08
20
-5.77
10
6.05
20
-5.98
10
6.04
20
-6.02
0
LWPOLYLINE
5
50
100
AcDbEntity
8
0
6
ByLayer
62
256
370
-1
100
AcDbPolyline
90
18
70
0
43
0
10
7.62
20
-4.78
10
7.62
20
-4.79
10
8.98
20
-4.28
10
9.60
20
-4.01
10
9.92
20
-3.85
10
9.93
20
-3.83
10
9.76
20
-3.75
10
9.56
20
-3.70
10
9.33
20
-3.67
10
9.19
20
-3.67
10
9.15
20
-3.67
10
9.03
20
-3.68
10
8.85
20
-3.72
10
8.65
20
-3.80
10
8.46
20
-3.90
10
8.24
20
-4.06
10
8.03
20
-4.26
10
7.84
20
-4.48
10
7.62
20
-4.78
0
LWPOLYLINE
5
51
100
AcDbEntity
8
0
6
ByLayer
62
256
370
-1
100
AcDbPolyline
90
37
70
0
43
0
10
11.49
20
-7.03
10
11.49
20
-7.17
10
11.53
20
-7.27
10
11.60
20
-7.36
10
11.67
20
-7.41
10
11.78
20
-7.46
10
11.91
20
-7.48
10
12.08
20
-7.47
10
12.25
20
-7.43
10
12.42
20
-7.34
10
12.57
20
-7.22
10
12.68
20
-7.09
10
12.76
20
-6.96
10
12.83
20
-6.77
10
13.33
20
-5.18
10
13.59
20
-4.50
10
13.94
20
-3.64
10
14.13
20
-3.12
10
14.15
20
-3.00
10
14.14
20
-2.86
10
14.11
20
-2.77
10
14.04
20
-2.67
10
13.97
20
-2.61
10
13.85
20
-2.56
10
13.70
20
-2.55
10
13.58
20
-2.55
10
13.41
20
-2.59
10
13.24
20
-2.67
10
13.08
20
-2.79
10
12.97
20
-2.92
10
12.89
20
-3.05
10
12.83
20
-3.19
10
12.71
20
-3.54
10
12.18
20
-4.87
10
11.98
20
-5.42
10
11.54
20
-6.83
10
11.50
20
-6.96
10
11.49
20
-7.03
0
LWPOLYLINE
5
52
100
AcDbEntity
8
0
6
ByLayer
62
256
370
-1
100
AcDbPolyline
90
31
70
0
43
0
10
13.54
20
-1.37
10
13.56
20
-1.50
10
13.62
20
-1.63
10
13.71
20
-1.73
10
13.82
20
-1.80
10
13.96
20
-1.84
10
14.11
20
-1.85
10
14.15
20
-1.84
10
14.28
20
-1.83
10
14.45
20
-1.77
10
14.60
20
-1.69
10
14.77
20
-1.55
10
14.89
20
-1.42
10
14.98
20
-1.28
10
15.04
20
-1.14
10
15.06
20
-1.01
10
15.06
20
-0.85
10
15.01
20
-0.75
10
14.95
20
-0.66
10
14.87
20
-0.59
10
14.75
20
-0.52
10
14.62
20
-0.49
10
14.45
20
-0.49
10
14.28
20
-0.53
10
14.13
20
-0.59
10
13.97
20
-0.68
10
13.83
20
-0.80
10
13.72
20
-0.91
10
13.62
20
-1.08
10
13.56
20
-1.22
10
13.55
20
-1.33
10
13.54
20
-1.37
0
LWPOLYLINE
5
53
100
AcDbEntity
8
0
6
ByLayer
62
256
370
-1
100
AcDbPolyline
90
117
70
0
43
0
10
13.83
20
-6.82
10
13.83
20
-6.97
10
13.87
20
-7.09
10
13.94
20
-7.19
10
14.06
20
-7.30
10
14.22
20
-7.40
10
14.47
20
-7.50
10
14.75
20
-7.57
10
15.01
20
-7.60
10
15.22
20
-7.61
10
15.45
20
-7.62
10
15.49
20
-7.61
10
15.68
20
-7.61
10
15.72
20
-7.60
10
16.01
20
-7.57
10
16.36
20
-7.49
10
16.69
20
-7.38
10
17.00
20
-7.24
10
17.28
20
-7.08
10
17.48
20
-6.92
10
17.69
20
-6.71
10
17.85
20
-6.51
10
17.96
20
-6.30
10
18.06
20
-6.05
10
18.09
20
-5.89
10
18.10
20
-5.69
10
18.08
20
-5.56
10
18.02
20
-5.39
10
17.95
20
-5.25
10
17.82
20
-5.09
10
17.66
20
-4.93
10
17.39
20
-4.74
10
16.94
20
-4.47
10
16.54
20
-4.25
10
16.37
20
-4.12
10
16.27
20
-4.02
10
16.24
20
-3.94
10
16.24
20
-3.88
10
16.27
20
-3.83
10
16.35
20
-3.76
10
16.48
20
-3.69
10
16.68
20
-3.64
10
16.95
20
-3.60
10
17.14
20
-3.59
10
17.38
20
-3.59
10
17.58
20
-3.59
10
17.62
20
-3.59
10
17.78
20
-3.61
10
17.81
20
-3.62
10
17.80
20
-3.69
10
17.82
20
-3.80
10
17.87
20
-3.88
10
17.95
20
-3.94
10
18.07
20
-3.98
10
18.22
20
-4.00
10
18.33
20
-3.98
10
18.46
20
-3.93
10
18.56
20
-3.86
10
18.67
20
-3.74
10
18.78
20
-3.56
10
18.90
20
-3.31
10
18.98
20
-3.07
10
19.00
20
-2.94
10
19.01
20
-2.87
10
18.99
20
-2.76
10
18.95
20
-2.67
10
18.86
20
-2.59
10
18.75
20
-2.53
10
18.56
20
-2.48
10
18.36
20
-2.46
10
18.05
20
-2.46
10
17.64
20
-2.47
10
17.60
20
-2.48
10
17.28
20
-2.49
10
17.20
20
-2.50
10
16.93
20
-2.53
10
16.56
20
-2.60
10
16.26
20
-2.69
10
16.00
20
-2.80
10
15.83
20
-2.89
10
15.61
20
-3.04
10
15.44
20
-3.19
10
15.29
20
-3.36
10
15.16
20
-3.55
10
15.04
20
-3.79
10
14.97
20
-4.01
10
14.94
20
-4.19
10
14.94
20
-4.37
10
14.98
20
-4.53
10
15.04
20
-4.69
10
15.15
20
-4.85
10
15.34
20
-5.04
10
15.62
20
-5.23
10
16.16
20
-5.52
10
16.46
20
-5.69
10
16.61
20
-5.80
10
16.72
20
-5.91
10
16.76
20
-6.00
10
16.76
20
-6.06
10
16.73
20
-6.16
10
16.66
20
-6.25
10
16.57
20
-6.32
10
16.43
20
-6.38
10
16.20
20
-6.44
10
15.98
20
-6.47
10
15.73
20
-6.48
10
15.58
20
-6.47
10
15.34
20
-6.42
10
14.90
20
-6.27
10
14.69
20
-6.22
10
14.46
20
-6.21
10
14.30
20
-6.24
10
14.17
20
-6.30
10
14.05
20
-6.38
10
13.96
20
-6.48
10
13.88
20
-6.62
10
13.83
20
-6.78
10
13.83
20
-6.82
0
LWPOLYLINE
5
54
100
AcDbEntity
8
0
6
ByLayer
62
256
370
-1
100
AcDbPolyline
90
77
70
0
43
0
10
17.85
20
-9.53
10
17.85
20
-9.68
10
17.89
20
-9.79
10
17.95
20
-9.87
10
18.05
20
-9.94
10
18.15
20
-9.98
10
18.25
20
-9.99
10
18.33
20
-10.00
10
18.37
20
-9.99
10
18.51
20
-9.98
10
18.67
20
-9.92
10
18.82
20
-9.82
10
18.95
20
-9.71
10
19.05
20
-9.60
10
19.12
20
-9.46
10
19.39
20
-8.68
10
19.78
20
-7.53
10
19.82
20
-7.52
10
19.97
20
-7.56
10
20.30
20
-7.60
10
20.59
20
-7.61
10
20.86
20
-7.60
10
20.94
20
-7.59
10
21.19
20
-7.55
10
21.48
20
-7.47
10
21.72
20
-7.37
10
22.02
20
-7.22
10
22.32
20
-7.02
10
22.59
20
-6.79
10
22.87
20
-6.51
10
23.09
20
-6.24
10
23.28
20
-5.95
10
23.46
20
-5.60
10
23.60
20
-5.24
10
23.74
20
-4.80
10
23.82
20
-4.42
10
23.86
20
-4.15
10
23.87
20
-3.95
10
23.87
20
-3.75
10
23.86
20
-3.71
10
23.84
20
-3.51
10
23.78
20
-3.30
10
23.70
20
-3.12
10
23.60
20
-2.99
10
23.48
20
-2.86
10
23.32
20
-2.76
10
23.14
20
-2.68
10
22.95
20
-2.63
10
22.80
20
-2.62
10
22.56
20
-2.60
10
22.31
20
-2.62
10
21.98
20
-2.68
10
21.69
20
-2.77
10
21.37
20
-2.89
10
21.26
20
-2.94
10
21.28
20
-2.88
10
21.30
20
-2.80
10
21.30
20
-2.67
10
21.28
20
-2.56
10
21.21
20
-2.45
10
21.12
20
-2.38
10
21.01
20
-2.33
10
20.88
20
-2.31
10
20.77
20
-2.32
10
20.62
20
-2.35
10
20.46
20
-2.43
10
20.30
20
-2.55
10
20.15
20
-2.71
10
20.00
20
-2.91
10
19.89
20
-3.13
10
19.84
20
-3.28
10
19.64
20
-4.02
10
19.36
20
-5.00
10
19.00
20
-6.14
10
18.24
20
-8.34
10
18.16
20
-8.58
10
17.86
20
-9.44
10
17.85
20
-9.53
0
LWPOLYLINE
5
55
100
AcDbEntity
8
0
6
ByLayer
62
256
370
-1
100
AcDbPolyline
90
30
70
0
43
0
10
20.23
20
-6.24
10
20.23
20
-6.26
10
20.49
20
-6.33
10
20.73
20
-6.37
10
20.94
20
-6.38
10
21.11
20
-6.38
10
21.29
20
-6.35
10
21.47
20
-6.29
10
21.65
20
-6.20
10
21.84
20
-6.05
10
22.00
20
-5.87
10
22.14
20
-5.67
10
22.26
20
-5.43
10
22.39
20
-5.07
10
22.52
20
-4.64
10
22.57
20
-4.41
10
22.57
20
-4.18
10
22.55
20
-4.05
10
22.50
20
-3.96
10
22.42
20
-3.89
10
22.31
20
-3.84
10
22.20
20
-3.83
10
22.03
20
-3.84
10
21.79
20
-3.89
10
21.53
20
-3.97
10
21.25
20
-4.11
10
20.98
20
-4.26
10
20.81
20
-4.38
10
20.63
20
-5.03
10
20.29
20
-6.10
10
20.23
20
-6.24
0
LWPOLYLINE
5
56
100
AcDbEntity
8
0
6
ByLayer
62
256
370
-1
100
AcDbPolyline
90
38
70
0
43
0
10
24.04
20
-7.05
10
24.04
20
-7.16
10
24.08
20
-7.26
10
24.15
20
-7.36
10
24.23
20
-7.42
10
24.34
20
-7.46
10
24.46
20
-7.48
10
24.63
20
-7.47
10
24.80
20
-7.43
10
24.97
20
-7.34
10
25.11
20
-7.23
10
25.23
20
-7.10
10
25.31
20
-6.95
10
25.47
20
-6.51
10
25.89
20
-5.17
10
26.14
20
-4.51
10
26.51
20
-3.60
10
26.68
20
-3.11
10
26.71
20
-2.97
10
26.70
20
-2.87
10
26.66
20
-2.76
10
26.59
20
-2.67
10
26.52
20
-2.61
10
26.40
20
-2.56
10
26.26
20
-2.55
10
26.13
20
-2.55
10
25.96
20
-2.59
10
25.81
20
-2.66
10
25.67
20
-2.76
10
25.55
20
-2.88
10
25.45
20
-3.03
10
25.38
20
-3.19
10
25.27
20
-3.53
10
24.75
20
-4.83
10
24.56
20
-5.36
10
24.08
20
-6.87
10
24.04
20
-6.99
10
24.04
20
-7.04
10
24.04
20
-7.05
0
LWPOLYLINE
5
57
100
AcDbEntity
8
0
6
ByLayer
62
256
370
-1
100
AcDbPolyline
90
31
70
0
43
0
10
26.10
20
-1.31
10
26.10
20
-1.47
10
26.14
20
-1.59
10
26.22
20
-1.69
10
26.32
20
-1.77
10
26.44
20
-1.83
10
26.57
20
-1.84
10
26.66
20
-1.85
10
26.71
20
-1.84
10
26.83
20
-1.83
10
26.99
20
-1.77
10
27.14
20
-1.69
10
27.31
20
-1.56
10
27.43
20
-1.44
10
27.53
20
-1.29
10
27.59
20
-1.14
10
27.61
20
-1.02
10
27.62
20
-0.92
10
27.59
20
-0.79
10
27.53
20
-0.69
10
27.42
20
-0.58
10
27.32
20
-0.53
10
27.20
20
-0.50
10
27.01
20
-0.49
10
26.85
20
-0.52
10
26.69
20
-0.58
10
26.53
20
-0.67
10
26.38
20
-0.79
10
26.26
20
-0.92
10
26.18
20
-1.06
10
26.12
20
-1.21
10
26.10
20
-1.31
0
LWPOLYLINE
5
58
100
AcDbEntity
8
0
6
ByLayer
62
256
370
-1
100
AcDbPolyline
90
87
70
0
43
0
10
26.69
20
-6.03
10
26.69
20
-6.24
10
26.69
20
-6.28
10
26.72
20
-6.44
10
26.78
20
-6.64
10
26.87
20
-6.82
10
26.98
20
-6.96
10
27.14
20
-7.12
10
27.34
20
-7.26
10
27.58
20
-7.38
10
27.83
20
-7.46
10
28.09
20
-7.51
10
28.36
20
-7.54
10
28.71
20
-7.55
10
28.75
20
-7.55
10
28.95
20
-7.54
10
28.99
20
-7.54
10
29.25
20
-7.51
10
29.62
20
-7.43
10
29.98
20
-7.33
10
30.29
20
-7.20
10
30.52
20
-7.09
10
30.74
20
-6.95
10
30.91
20
-6.81
10
31.04
20
-6.66
10
31.12
20
-6.53
10
31.18
20
-6.35
10
31.20
20
-6.22
10
31.18
20
-6.12
10
31.14
20
-6.05
10
31.05
20
-5.99
10
30.95
20
-5.97
10
30.77
20
-5.96
10
30.57
20
-6.01
10
30.28
20
-6.13
10
29.97
20
-6.27
10
29.70
20
-6.35
10
29.44
20
-6.41
10
29.26
20
-6.42
10
29.01
20
-6.44
10
28.78
20
-6.42
10
28.55
20
-6.38
10
28.36
20
-6.32
10
28.23
20
-6.25
10
28.09
20
-6.14
10
27.99
20
-6.02
10
27.96
20
-5.97
10
27.98
20
-5.95
10
29.73
20
-5.28
10
30.47
20
-4.99
10
30.85
20
-4.80
10
31.12
20
-4.65
10
31.35
20
-4.48
10
31.50
20
-4.34
10
31.66
20
-4.15
10
31.76
20
-3.97
10
31.83
20
-3.75
10
31.86
20
-3.58
10
31.87
20
-3.42
10
31.84
20
-3.26
10
31.77
20
-3.11
10
31.69
20
-3.00
10
31.56
20
-2.88
10
31.42
20
-2.79
10
31.22
20
-2.70
10
30.96
20
-2.63
10
30.70
20
-2.59
10
30.49
20
-2.57
10
30.20
20
-2.56
10
30.16
20
-2.56
10
29.96
20
-2.57
10
29.88
20
-2.58
10
29.65
20
-2.62
10
29.36
20
-2.69
10
29.08
20
-2.80
10
28.81
20
-2.93
10
28.51
20
-3.12
10
28.23
20
-3.33
10
27.98
20
-3.56
10
27.72
20
-3.83
10
27.48
20
-4.13
10
27.25
20
-4.48
10
27.05
20
-4.86
10
26.89
20
-5.23
10
26.77
20
-5.57
10
26.71
20
-5.85
10
26.69
20
-6.02
10
26.69
20
-6.03
0
LWPOLYLINE
5
59
100
AcDbEntity
8
0
6
ByLayer
62
256
370
-1
100
AcDbPolyline
90
21
70
0
43
0
10
30.57
20
-3.83
10
30.57
20
-3.84
10
30.50
20
-3.79
10
30.33
20
-3.73
10
30.12
20
-3.69
10
29.93
20
-3.67
10
29.84
20
-3.67
10
29.80
20
-3.67
10
29.68
20
-3.68
10
29.49
20
-3.72
10
29.29
20
-3.80
10
29.11
20
-3.90
10
28.92
20
-4.04
10
28.71
20
-4.22
10
28.51
20
-4.45
10
28.27
20
-4.78
10
28.27
20
-4.79
10
29.62
20
-4.28
10
30.22
20
-4.03
10
30.57
20
-3.85
10
30.57
20
-3.84
10
30.57
20
-3.83
0
LWPOLYLINE
5
60
100
AcDbEntity
8
0
6
ByLayer
62
256
370
-1
100
AcDbPolyline
90
31
70
0
43
0
10
32.06
20
-7.07
10
32.07
20
-7.23
10
32.10
20
-7.33
10
32.17
20
-7.42
10
32.26
20
-7.48
10
32.38
20
-7.52
10
32.49
20
-7.54
10
32.65
20
-7.53
10
32.81
20
-7.49
10
32.95
20
-7.41
10
33.10
20
-7.29
10
33.23
20
-7.13
10
33.34
20
-6.95
10
33.45
20
-6.68
10
35.44
20
-0.83
10
35.54
20
-0.50
10
35.55
20
-0.38
10
35.54
20
-0.28
10
35.49
20
-0.18
10
35.39
20
-0.08
10
35.28
20
-0.02
10
35.16
20
0.00
10
35.02
20
0.00
10
34.86
20
-0.03
10
34.72
20
-0.08
10
34.56
20
-0.18
10
34.44
20
-0.29
10
34.34
20
-0.40
10
34.27
20
-0.54
10
32.28
20
-6.39
10
32.08
20
-6.98
10
32.06
20
-7.07
0
LWPOLYLINE
5
61
100
AcDbEntity
8
0
6
ByLayer
62
256
370
-1
100
AcDbPolyline
90
84
70
0
43
0
10
35.51
20
-3.26
10
35.52
20
-3.38
10
35.56
20
-3.46
10
35.65
20
-3.55
10
35.73
20
-3.59
10
35.89
20
-3.63
10
36.48
20
-3.69
10
36.73
20
-3.71
10
36.76
20
-3.71
10
36.71
20
-3.91
10
36.17
20
-5.67
10
35.96
20
-6.30
10
35.68
20
-7.06
10
35.65
20
-7.20
10
35.65
20
-7.31
10
35.69
20
-7.41
10
35.77
20
-7.51
10
35.87
20
-7.58
10
35.99
20
-7.62
10
36.14
20
-7.64
10
36.29
20
-7.62
10
36.44
20
-7.57
10
36.58
20
-7.49
10
36.71
20
-7.37
10
36.83
20
-7.23
10
36.97
20
-7.00
10
37.09
20
-6.75
10
37.24
20
-6.30
10
37.58
20
-5.21
10
37.75
20
-4.66
10
38.04
20
-3.69
10
38.23
20
-3.66
10
38.40
20
-3.65
10
38.67
20
-3.65
10
38.71
20
-3.66
10
38.99
20
-3.66
10
39.15
20
-3.63
10
39.29
20
-3.58
10
39.44
20
-3.49
10
39.58
20
-3.36
10
39.69
20
-3.23
10
39.77
20
-3.07
10
39.81
20
-2.90
10
39.82
20
-2.80
10
39.80
20
-2.68
10
39.74
20
-2.59
10
39.65
20
-2.52
10
39.53
20
-2.47
10
39.34
20
-2.44
10
39.15
20
-2.43
10
38.84
20
-2.42
10
38.54
20
-2.45
10
38.43
20
-2.46
10
38.44
20
-2.43
10
38.60
20
-1.97
10
38.67
20
-1.70
10
38.70
20
-1.48
10
38.70
20
-1.33
10
38.67
20
-1.20
10
38.63
20
-1.11
10
38.54
20
-1.02
10
38.44
20
-0.97
10
38.33
20
-0.95
10
38.26
20
-0.95
10
38.22
20
-0.95
10
38.10
20
-0.97
10
37.94
20
-1.02
10
37.78
20
-1.11
10
37.63
20
-1.22
10
37.52
20
-1.35
10
37.44
20
-1.49
10
37.32
20
-1.88
10
37.18
20
-2.38
10
37.15
20
-2.48
10
36.56
20
-2.43
10
36.31
20
-2.43
10
36.15
20
-2.46
10
36.01
20
-2.52
10
35.87
20
-2.62
10
35.75
20
-2.73
10
35.63
20
-2.87
10
35.56
20
-3.02
10
35.52
20
-3.17
10
35.52
20
-3.25
10
35.51
20
-3.26
0
LWPOLYLINE
5
62
100
AcDbEntity
8
0
6
ByLayer
62
256
370
-1
100
AcDbPolyline
90
89
70
0
43
0
10
39.26
20
-6.07
10
39.26
20
-6.23
10
39.27
20
-6.31
10
39.30
20
-6.47
10
39.36
20
-6.66
10
39.45
20
-6.82
10
39.56
20
-6.96
10
39.71
20
-7.12
10
39.91
20
-7.26
10
40.14
20
-7.37
10
40.38
20
-7.45
10
40.70
20
-7.52
10
40.95
20
-7.54
10
41.28
20
-7.55
10
41.36
20
-7.55
10
41.53
20
-7.54
10
41.57
20
-7.54
10
41.83
20
-7.51
10
42.15
20
-7.44
10
42.52
20
-7.34
10
42.86
20
-7.21
10
43.11
20
-7.09
10
43.32
20
-6.95
10
43.48
20
-6.82
10
43.60
20
-6.68
10
43.69
20
-6.54
10
43.74
20
-6.40
10
43.77
20
-6.26
10
43.77
20
-6.15
10
43.74
20
-6.09
10
43.67
20
-6.02
10
43.56
20
-5.97
10
43.45
20
-5.96
10
43.31
20
-5.97
10
43.11
20
-6.02
10
42.84
20
-6.13
10
42.55
20
-6.27
10
42.28
20
-6.35
10
42.01
20
-6.41
10
41.84
20
-6.42
10
41.60
20
-6.44
10
41.41
20
-6.43
10
41.33
20
-6.42
10
41.15
20
-6.39
10
40.95
20
-6.33
10
40.78
20
-6.24
10
40.64
20
-6.11
10
40.53
20
-5.97
10
40.53
20
-5.96
10
42.69
20
-5.13
10
43.27
20
-4.89
10
43.53
20
-4.75
10
43.79
20
-4.59
10
44.01
20
-4.41
10
44.17
20
-4.23
10
44.29
20
-4.04
10
44.37
20
-3.87
10
44.42
20
-3.67
10
44.44
20
-3.52
10
44.44
20
-3.36
10
44.39
20
-3.21
10
44.33
20
-3.08
10
44.25
20
-2.98
10
44.13
20
-2.87
10
43.96
20
-2.77
10
43.74
20
-2.69
10
43.50
20
-2.62
10
43.23
20
-2.58
10
42.96
20
-2.56
10
42.77
20
-2.56
10
42.73
20
-2.56
10
42.54
20
-2.57
10
42.42
20
-2.59
10
42.20
20
-2.62
10
41.90
20
-2.70
10
41.64
20
-2.80
10
41.39
20
-2.93
10
41.06
20
-3.13
10
40.77
20
-3.36
10
40.49
20
-3.62
10
40.26
20
-3.87
10
40.01
20
-4.20
10
39.81
20
-4.50
10
39.64
20
-4.82
10
39.50
20
-5.14
10
39.36
20
-5.54
10
39.30
20
-5.78
10
39.27
20
-6.00
10
39.27
20
-6.06
10
39.26
20
-6.07
0
LWPOLYLINE
5
63
100
AcDbEntity
8
0
6
ByLayer
62
256
370
-1
100
AcDbPolyline
90
20
70
0
43
0
10
43.15
20
-3.83
10
43.13
20
-3.82
10
43.00
20
-3.76
10
42.83
20
-3.71
10
42.64
20
-3.68
10
42.41
20
-3.67
10
42.37
20
-3.67
10
42.26
20
-3.68
10
42.07
20
-3.72
10
41.87
20
-3.80
10
41.65
20
-3.92
10
41.45
20
-4.07
10
41.28
20
-4.24
10
41.05
20
-4.50
10
40.85
20
-4.77
10
40.85
20
-4.79
10
42.19
20
-4.28
10
42.73
20
-4.06
10
43.14
20
-3.85
10
43.15
20
-3.84
10
43.15
20
-3.83
0
LWPOLYLINE
5
64
100
AcDbEntity
8
0
6
ByLayer
62
256
370
-1
100
AcDbPolyline
90
84
70
0
43
0
10
44.18
20
-6.88
10
44.19
20
-7.00
10
44.23
20
-7.11
10
44.30
20
-7.21
10
44.39
20
-7.28
10
44.48
20
-7.32
10
44.57
20
-7.34
10
44.68
20
-7.34
10
44.82
20
-7.32
10
44.97
20
-7.26
10
45.16
20
-7.14
10
45.39
20
-6.96
10
45.86
20
-6.65
10
47.04
20
-5.81
10
47.17
20
-5.72
10
47.20
20
-5.76
10
47.59
20
-6.58
10
47.90
20
-7.19
10
48.02
20
-7.38
10
48.10
20
-7.47
10
48.20
20
-7.52
10
48.32
20
-7.54
10
48.47
20
-7.54
10
48.62
20
-7.50
10
48.77
20
-7.43
10
48.95
20
-7.30
10
49.09
20
-7.16
10
49.17
20
-7.02
10
49.22
20
-6.89
10
49.23
20
-6.79
10
49.22
20
-6.75
10
49.21
20
-6.67
10
49.15
20
-6.51
10
48.36
20
-4.87
10
48.54
20
-4.74
10
49.55
20
-4.04
10
50.22
20
-3.59
10
50.50
20
-3.36
10
50.74
20
-3.12
10
50.85
20
-2.96
10
50.90
20
-2.83
10
50.91
20
-2.73
10
50.91
20
-2.62
10
50.87
20
-2.51
10
50.78
20
-2.41
10
50.70
20
-2.35
10
50.59
20
-2.30
10
50.47
20
-2.29
10
50.33
20
-2.29
10
50.18
20
-2.34
10
50.04
20
-2.42
10
49.91
20
-2.52
10
49.61
20
-2.78
10
49.16
20
-3.11
10
48.12
20
-3.80
10
47.92
20
-3.93
10
47.91
20
-3.93
10
47.48
20
-2.97
10
47.31
20
-2.69
10
47.16
20
-2.52
10
47.05
20
-2.42
10
46.94
20
-2.36
10
46.85
20
-2.35
10
46.71
20
-2.35
10
46.57
20
-2.39
10
46.40
20
-2.48
10
46.23
20
-2.61
10
46.11
20
-2.74
10
46.02
20
-2.90
10
45.98
20
-3.03
10
45.97
20
-3.15
10
46.00
20
-3.27
10
46.06
20
-3.36
10
46.21
20
-3.56
10
46.34
20
-3.79
10
46.48
20
-4.09
10
46.73
20
-4.76
10
46.72
20
-4.77
10
45.49
20
-5.68
10
44.73
20
-6.18
10
44.49
20
-6.38
10
44.34
20
-6.53
10
44.24
20
-6.69
10
44.20
20
-6.82
10
44.18
20
-6.88
0
LWPOLYLINE
5
65
100
AcDbEntity
8
0
6
ByLayer
62
256
370
-1
100
AcDbPolyline
90
85
70
0
43
0
10
51.14
20
-3.21
10
51.15
20
-3.36
10
51.18
20
-3.45
10
51.28
20
-3.55
10
51.39
20
-3.60
10
51.53
20
-3.63
10
52.10
20
-3.69
10
52.37
20
-3.71
10
52.38
20
-3.71
10
52.36
20
-3.79
10
51.83
20
-5.58
10
51.59
20
-6.29
10
51.30
20
-7.05
10
51.28
20
-7.17
10
51.27
20
-7.26
10
51.29
20
-7.37
10
51.34
20
-7.45
10
51.45
20
-7.55
10
51.57
20
-7.61
10
51.68
20
-7.63
10
51.78
20
-7.64
10
51.82
20
-7.63
10
51.96
20
-7.61
10
52.08
20
-7.56
10
52.22
20
-7.47
10
52.35
20
-7.36
10
52.49
20
-7.17
10
52.60
20
-6.98
10
52.71
20
-6.75
10
52.86
20
-6.30
10
53.21
20
-5.22
10
53.37
20
-4.66
10
53.66
20
-3.69
10
53.69
20
-3.68
10
53.93
20
-3.66
10
54.13
20
-3.65
10
54.29
20
-3.65
10
54.33
20
-3.66
10
54.61
20
-3.66
10
54.78
20
-3.63
10
54.93
20
-3.58
10
55.06
20
-3.49
10
55.18
20
-3.39
10
55.28
20
-3.28
10
55.35
20
-3.15
10
55.41
20
-3.01
10
55.44
20
-2.85
10
55.44
20
-2.73
10
55.39
20
-2.63
10
55.30
20
-2.53
10
55.18
20
-2.48
10
55.01
20
-2.45
10
54.79
20
-2.43
10
54.42
20
-2.42
10
54.38
20
-2.43
10
54.12
20
-2.45
10
54.06
20
-2.46
10
54.08
20
-2.36
10
54.21
20
-2.01
10
54.29
20
-1.71
10
54.32
20
-1.49
10
54.32
20
-1.32
10
54.29
20
-1.18
10
54.24
20
-1.09
10
54.15
20
-1.01
10
54.06
20
-0.97
10
53.96
20
-0.95
10
53.88
20
-0.95
10
53.84
20
-0.95
10
53.70
20
-0.97
10
53.54
20
-1.03
10
53.39
20
-1.11
10
53.28
20
-1.21
10
53.17
20
-1.32
10
53.09
20
-1.45
10
53.03
20
-1.61
10
52.77
20
-2.48
10
52.18
20
-2.43
10
51.94
20
-2.43
10
51.77
20
-2.46
10
51.63
20
-2.52
10
51.49
20
-2.62
10
51.32
20
-2.79
10
51.23
20
-2.93
10
51.16
20
-3.10
10
51.14
20
-3.21
0
LWPOLYLINE
5
66
100
AcDbEntity
8
0
6
ByLayer
62
256
370
-1
100
AcDbPolyline
90
55
70
0
43
0
10
55.97
20
-4.96
10
55.97
20
-5.10
10
56.01
20
-5.18
10
56.06
20
-5.25
10
56.14
20
-5.31
10
56.27
20
-5.38
10
56.42
20
-5.41
10
56.85
20
-5.42
10
57.24
20
-5.42
10
57.28
20
-5.41
10
57.76
20
-5.41
10
57.80
20
-5.41
10
58.05
20
-5.41
10
58.09
20
-5.40
10
58.27
20
-5.40
10
58.31
20
-5.39
10
58.44
20
-5.39
10
58.48
20
-5.39
10
58.78
20
-5.38
10
58.82
20
-5.37
10
58.99
20
-5.35
10
59.20
20
-5.30
10
59.37
20
-5.23
10
59.50
20
-5.13
10
59.61
20
-5.01
10
59.68
20
-4.88
10
59.73
20
-4.73
10
59.74
20
-4.65
10
59.72
20
-4.55
10
59.67
20
-4.47
10
59.58
20
-4.39
10
59.46
20
-4.32
10
59.31
20
-4.28
10
59.17
20
-4.27
10
58.67
20
-4.27
10
58.62
20
-4.28
10
58.40
20
-4.28
10
58.36
20
-4.28
10
58.17
20
-4.28
10
58.13
20
-4.29
10
57.96
20
-4.29
10
57.92
20
-4.29
10
57.74
20
-4.29
10
57.69
20
-4.30
10
57.48
20
-4.30
10
57.44
20
-4.31
10
57.09
20
-4.31
10
57.05
20
-4.31
10
56.83
20
-4.31
10
56.64
20
-4.35
10
56.45
20
-4.41
10
56.29
20
-4.50
10
56.16
20
-4.61
10
56.07
20
-4.72
10
56.00
20
-4.85
10
55.97
20
-4.96
0
LWPOLYLINE
5
67
100
AcDbEntity
8
0
6
ByLayer
62
256
370
-1
100
AcDbPolyline
90
87
70
0
43
0
10
60.75
20
-6.57
10
60.76
20
-6.76
10
60.80
20
-6.92
10
60.85
20
-7.06
10
60.94
20
-7.18
10
61.07
20
-7.31
10
61.24
20
-7.42
10
61.43
20
-7.50
10
61.65
20
-7.55
10
61.85
20
-7.57
10
62.12
20
-7.58
10
62.35
20
-7.57
10
62.39
20
-7.57
10
62.61
20
-7.54
10
63.00
20
-7.47
10
63.35
20
-7.37
10
63.38
20
-7.49
10
63.44
20
-7.58
10
63.50
20
-7.64
10
63.62
20
-7.69
10
63.74
20
-7.71
10
63.92
20
-7.70
10
64.11
20
-7.65
10
64.27
20
-7.56
10
64.40
20
-7.46
10
64.51
20
-7.35
10
64.59
20
-7.21
10
64.66
20
-7.02
10
64.79
20
-6.55
10
65.13
20
-5.54
10
65.42
20
-4.68
10
65.51
20
-4.45
10
66.07
20
-3.03
10
66.09
20
-2.91
10
66.08
20
-2.80
10
66.04
20
-2.70
10
65.97
20
-2.62
10
65.85
20
-2.53
10
65.71
20
-2.50
10
65.52
20
-2.49
10
65.35
20
-2.52
10
65.19
20
-2.59
10
65.06
20
-2.67
10
64.94
20
-2.80
10
64.83
20
-2.97
10
64.61
20
-3.46
10
64.35
20
-4.11
10
64.07
20
-4.90
10
63.67
20
-6.14
10
63.64
20
-6.21
10
63.62
20
-6.23
10
63.19
20
-6.31
10
62.85
20
-6.35
10
62.67
20
-6.36
10
62.48
20
-6.37
10
62.36
20
-6.36
10
62.19
20
-6.31
10
62.09
20
-6.27
10
62.08
20
-6.25
10
62.09
20
-6.21
10
62.12
20
-5.96
10
62.21
20
-5.51
10
62.38
20
-4.90
10
62.60
20
-4.23
10
62.81
20
-3.78
10
63.03
20
-3.34
10
63.14
20
-3.05
10
63.16
20
-2.91
10
63.15
20
-2.81
10
63.12
20
-2.72
10
63.05
20
-2.62
10
62.95
20
-2.55
10
62.85
20
-2.51
10
62.73
20
-2.49
10
62.59
20
-2.49
10
62.42
20
-2.53
10
62.28
20
-2.59
10
62.15
20
-2.67
10
62.02
20
-2.80
10
61.90
20
-2.98
10
61.60
20
-3.58
10
61.40
20
-4.06
10
61.22
20
-4.56
10
61.02
20
-5.25
10
60.86
20
-5.96
10
60.77
20
-6.47
10
60.76
20
-6.57
10
60.75
20
-6.57
0
LWPOLYLINE
5
68
100
AcDbEntity
8
0
6
ByLayer
62
256
370
-1
100
AcDbPolyline
90
97
70
0
43
0
10
65.48
20
-7.21
10
65.48
20
-7.35
10
65.52
20
-7.45
10
65.58
20
-7.53
10
65.66
20
-7.60
10
65.77
20
-7.65
10
65.90
20
-7.67
10
66.07
20
-7.66
10
66.24
20
-7.61
10
66.36
20
-7.55
10
66.52
20
-7.44
10
66.65
20
-7.31
10
66.73
20
-7.17
10
66.81
20
-7.00
10
66.93
20
-6.70
10
67.06
20
-6.40
10
67.23
20
-5.96
10
67.44
20
-5.49
10
67.47
20
-5.42
10
67.76
20
-4.98
10
68.03
20
-4.63
10
68.30
20
-4.33
10
68.57
20
-4.08
10
68.81
20
-3.89
10
69.00
20
-3.77
10
69.17
20
-3.70
10
69.33
20
-3.66
10
69.43
20
-3.65
10
69.48
20
-3.67
10
69.51
20
-3.70
10
69.53
20
-3.76
10
69.52
20
-3.86
10
69.46
20
-4.06
10
69.26
20
-4.59
10
69.01
20
-5.25
10
68.86
20
-5.75
10
68.73
20
-6.32
10
68.55
20
-7.20
10
68.55
20
-7.35
10
68.58
20
-7.46
10
68.64
20
-7.55
10
68.71
20
-7.61
10
68.82
20
-7.65
10
68.97
20
-7.67
10
69.14
20
-7.66
10
69.31
20
-7.61
10
69.46
20
-7.54
10
69.61
20
-7.43
10
69.73
20
-7.30
10
69.82
20
-7.14
10
69.92
20
-6.86
10
70.02
20
-6.43
10
70.12
20
-5.83
10
70.22
20
-5.41
10
70.43
20
-4.79
10
70.50
20
-4.61
10
70.65
20
-4.11
10
70.73
20
-3.75
10
70.77
20
-3.50
10
70.77
20
-3.19
10
70.74
20
-3.00
10
70.68
20
-2.85
10
70.59
20
-2.72
10
70.48
20
-2.62
10
70.35
20
-2.54
10
70.18
20
-2.48
10
70.02
20
-2.45
10
69.82
20
-2.44
10
69.66
20
-2.45
10
69.41
20
-2.49
10
69.13
20
-2.57
10
68.86
20
-2.69
10
68.58
20
-2.84
10
68.23
20
-3.07
10
68.19
20
-3.10
10
68.20
20
-3.03
10
68.24
20
-2.88
10
68.24
20
-2.67
10
68.22
20
-2.56
10
68.17
20
-2.48
10
68.09
20
-2.41
10
68.00
20
-2.37
10
67.86
20
-2.35
10
67.72
20
-2.35
10
67.55
20
-2.38
10
67.41
20
-2.44
10
67.26
20
-2.53
10
67.11
20
-2.67
10
67.00
20
-2.82
10
66.95
20
-2.95
10
66.69
20
-3.80
10
66.42
20
-4.53
10
65.96
20
-5.63
10
65.73
20
-6.24
10
65.64
20
-6.57
10
65.55
20
-6.93
10
65.49
20
-7.14
10
65.48
20
-7.21
0
LWPOLYLINE
5
69
100
AcDbEntity
8
0
6
ByLayer
62
256
370
-1
100
AcDbPolyline
90
75
70
0
43
0
10
70.54
20
-7.20
10
70.54
20
-7.34
10
70.57
20
-7.44
10
70.61
20
-7.51
10
70.68
20
-7.58
10
70.78
20
-7.62
10
70.91
20
-7.65
10
71.08
20
-7.64
10
71.23
20
-7.61
10
71.39
20
-7.53
10
71.54
20
-7.42
10
71.67
20
-7.28
10
71.76
20
-7.15
10
71.83
20
-6.97
10
72.57
20
-4.75
10
72.73
20
-4.57
10
72.94
20
-4.37
10
73.19
20
-4.17
10
73.45
20
-4.01
10
73.70
20
-3.89
10
73.98
20
-3.79
10
74.25
20
-3.72
10
74.39
20
-3.69
10
74.38
20
-3.78
10
74.22
20
-4.30
10
74.21
20
-4.43
10
74.23
20
-4.53
10
74.27
20
-4.61
10
74.33
20
-4.67
10
74.41
20
-4.71
10
74.53
20
-4.74
10
74.72
20
-4.75
10
74.90
20
-4.71
10
75.06
20
-4.64
10
75.19
20
-4.55
10
75.31
20
-4.42
10
75.42
20
-4.25
10
75.52
20
-4.06
10
75.67
20
-3.62
10
75.74
20
-3.32
10
75.76
20
-3.12
10
75.75
20
-2.97
10
75.72
20
-2.84
10
75.66
20
-2.74
10
75.59
20
-2.66
10
75.49
20
-2.59
10
75.38
20
-2.55
10
75.21
20
-2.52
10
75.09
20
-2.52
10
75.05
20
-2.52
10
74.85
20
-2.53
10
74.81
20
-2.53
10
74.54
20
-2.57
10
74.19
20
-2.65
10
73.86
20
-2.76
10
73.49
20
-2.92
10
73.17
20
-3.10
10
73.14
20
-3.11
10
73.13
20
-3.11
10
73.14
20
-2.93
10
73.11
20
-2.81
10
73.05
20
-2.72
10
72.98
20
-2.66
10
72.88
20
-2.62
10
72.76
20
-2.60
10
72.69
20
-2.60
10
72.65
20
-2.60
10
72.53
20
-2.62
10
72.38
20
-2.66
10
72.25
20
-2.74
10
72.13
20
-2.84
10
72.02
20
-2.97
10
71.94
20
-3.11
10
71.57
20
-4.11
10
70.56
20
-7.11
10
70.54
20
-7.20
0
LWPOLYLINE
5
70
100
AcDbEntity
8
0
6
ByLayer
62
256
370
-1
100
AcDbPolyline
90
87
70
0
43
0
10
75.47
20
-6.01
10
75.47
20
-6.26
10
75.51
20
-6.48
10
75.57
20
-6.66
10
75.66
20
-6.83
10
75.78
20
-6.99
10
75.93
20
-7.13
10
76.11
20
-7.26
10
76.30
20
-7.36
10
76.57
20
-7.45
10
76.83
20
-7.51
10
77.07
20
-7.54
10
77.27
20
-7.55
10
77.49
20
-7.55
10
77.53
20
-7.55
10
77.74
20
-7.54
10
77.78
20
-7.54
10
78.03
20
-7.51
10
78.43
20
-7.43
10
78.81
20
-7.31
10
79.10
20
-7.19
10
79.37
20
-7.05
10
79.58
20
-6.90
10
79.72
20
-6.78
10
79.84
20
-6.64
10
79.92
20
-6.49
10
79.97
20
-6.33
10
79.98
20
-6.17
10
79.95
20
-6.09
10
79.91
20
-6.04
10
79.85
20
-6.00
10
79.74
20
-5.97
10
79.55
20
-5.96
10
79.35
20
-6.01
10
79.08
20
-6.11
10
78.77
20
-6.26
10
78.50
20
-6.35
10
78.23
20
-6.41
10
77.98
20
-6.43
10
77.71
20
-6.44
10
77.67
20
-6.43
10
77.56
20
-6.42
10
77.33
20
-6.38
10
77.13
20
-6.31
10
76.97
20
-6.23
10
76.86
20
-6.13
10
76.76
20
-6.02
10
76.74
20
-5.96
10
78.91
20
-5.13
10
79.44
20
-4.90
10
79.75
20
-4.74
10
79.99
20
-4.59
10
80.18
20
-4.44
10
80.36
20
-4.25
10
80.49
20
-4.07
10
80.57
20
-3.90
10
80.63
20
-3.69
10
80.64
20
-3.55
10
80.65
20
-3.45
10
80.64
20
-3.41
10
80.62
20
-3.27
10
80.56
20
-3.12
10
80.46
20
-2.98
10
80.32
20
-2.87
10
80.16
20
-2.77
10
79.95
20
-2.69
10
79.68
20
-2.62
10
79.43
20
-2.58
10
79.17
20
-2.56
10
78.98
20
-2.56
10
78.94
20
-2.56
10
78.75
20
-2.57
10
78.67
20
-2.58
10
78.43
20
-2.62
10
78.12
20
-2.70
10
77.83
20
-2.81
10
77.52
20
-2.97
10
77.19
20
-3.19
10
76.90
20
-3.42
10
76.54
20
-3.79
10
76.30
20
-4.08
10
76.07
20
-4.42
10
75.90
20
-4.72
10
75.73
20
-5.06
10
75.60
20
-5.41
10
75.51
20
-5.73
10
75.48
20
-5.97
10
75.47
20
-6.01
0
LWPOLYLINE
5
71
100
AcDbEntity
8
0
6
ByLayer
62
256
370
-1
100
AcDbPolyline
90
20
70
0
43
0
10
79.35
20
-3.84
10
79.33
20
-3.82
10
79.17
20
-3.74
10
78.98
20
-3.70
10
78.82
20
-3.68
10
78.61
20
-3.67
10
78.57
20
-3.67
10
78.46
20
-3.68
10
78.25
20
-3.73
10
78.06
20
-3.80
10
77.88
20
-3.90
10
77.68
20
-4.05
10
77.47
20
-4.25
10
77.26
20
-4.49
10
77.05
20
-4.78
10
77.05
20
-4.79
10
78.41
20
-4.28
10
78.97
20
-4.04
10
79.34
20
-3.85
10
79.35
20
-3.84
10
79.35
20
-3.84
0
LWPOLYLINE
5
72
100
AcDbEntity
8
0
6
ByLayer
62
256
370
-1
100
AcDbPolyline
90
109
70
0
43
0
10
79.54
20
-9.34
10
79.55
20
-9.46
10
79.60
20
-9.56
10
79.71
20
-9.67
10
79.85
20
-9.75
10
80.04
20
-9.82
10
80.30
20
-9.87
10
80.57
20
-9.90
10
80.78
20
-9.91
10
81.02
20
-9.92
10
81.33
20
-9.92
10
81.37
20
-9.91
10
81.57
20
-9.90
10
81.65
20
-9.89
10
81.91
20
-9.85
10
82.28
20
-9.77
10
82.57
20
-9.66
10
82.81
20
-9.55
10
83.03
20
-9.43
10
83.30
20
-9.24
10
83.53
20
-9.03
10
83.71
20
-8.84
10
83.94
20
-8.54
10
84.18
20
-8.16
10
84.38
20
-7.78
10
84.56
20
-7.38
10
84.81
20
-6.75
10
85.01
20
-6.24
10
85.32
20
-5.52
10
85.62
20
-4.89
10
85.96
20
-4.21
10
86.12
20
-3.83
10
86.18
20
-3.62
10
86.20
20
-3.50
10
86.19
20
-3.38
10
86.16
20
-3.29
10
86.10
20
-3.21
10
86.03
20
-3.15
10
85.90
20
-3.10
10
85.79
20
-3.08
10
85.71
20
-2.96
10
85.60
20
-2.87
10
85.47
20
-2.79
10
85.30
20
-2.73
10
85.08
20
-2.68
10
84.87
20
-2.66
10
84.68
20
-2.66
10
84.52
20
-2.66
10
84.48
20
-2.66
10
84.27
20
-2.67
10
84.19
20
-2.69
10
83.94
20
-2.72
10
83.56
20
-2.81
10
83.19
20
-2.94
10
82.89
20
-3.08
10
82.63
20
-3.22
10
82.32
20
-3.43
10
82.04
20
-3.66
10
81.79
20
-3.90
10
81.54
20
-4.18
10
81.33
20
-4.48
10
81.15
20
-4.78
10
80.99
20
-5.09
10
80.84
20
-5.48
10
80.75
20
-5.80
10
80.72
20
-6.03
10
80.71
20
-6.20
10
80.71
20
-6.35
10
80.71
20
-6.40
10
80.74
20
-6.57
10
80.80
20
-6.76
10
80.89
20
-6.96
10
81.00
20
-7.12
10
81.15
20
-7.27
10
81.32
20
-7.38
10
81.52
20
-7.47
10
81.74
20
-7.54
10
81.97
20
-7.57
10
82.22
20
-7.58
10
82.26
20
-7.57
10
82.40
20
-7.57
10
82.69
20
-7.51
10
82.97
20
-7.42
10
83.23
20
-7.29
10
83.50
20
-7.12
10
83.41
20
-7.33
10
83.24
20
-7.69
10
83.05
20
-7.99
10
82.86
20
-8.24
10
82.68
20
-8.41
10
82.50
20
-8.55
10
82.31
20
-8.65
10
82.08
20
-8.74
10
81.87
20
-8.78
10
81.67
20
-8.80
10
81.54
20
-8.81
10
81.50
20
-8.80
10
81.32
20
-8.79
10
81.24
20
-8.78
10
80.97
20
-8.74
10
80.66
20
-8.68
10
80.45
20
-8.65
10
80.28
20
-8.65
10
80.10
20
-8.68
10
79.95
20
-8.75
10
79.81
20
-8.85
10
79.70
20
-8.97
10
79.61
20
-9.11
10
79.55
20
-9.27
10
79.54
20
-9.34
0
LWPOLYLINE
5
73
100
AcDbEntity
8
0
6
ByLayer
62
256
370
-1
100
AcDbPolyline
90
36
70
0
43
0
10
82.01
20
-5.93
10
82.02
20
-6.08
10
82.05
20
-6.20
10
82.11
20
-6.31
10
82.19
20
-6.40
10
82.31
20
-6.46
10
82.46
20
-6.49
10
82.64
20
-6.50
10
82.81
20
-6.46
10
83.03
20
-6.37
10
83.25
20
-6.24
10
83.52
20
-6.03
10
83.77
20
-5.79
10
83.96
20
-5.58
10
84.10
20
-5.37
10
84.43
20
-4.72
10
84.82
20
-3.89
10
84.82
20
-3.88
10
84.65
20
-3.78
10
84.48
20
-3.72
10
84.32
20
-3.70
10
84.18
20
-3.70
10
84.14
20
-3.71
10
83.96
20
-3.73
10
83.72
20
-3.78
10
83.48
20
-3.86
10
83.22
20
-3.99
10
83.01
20
-4.14
10
82.84
20
-4.28
10
82.67
20
-4.45
10
82.48
20
-4.69
10
82.31
20
-4.97
10
82.18
20
-5.27
10
82.07
20
-5.59
10
82.02
20
-5.83
10
82.02
20
-5.93
10
82.01
20
-5.93
0
LWPOLYLINE
5
74
100
AcDbEntity
8
0
6
ByLayer
62
256
370
-1
100
AcDbPolyline
90
37
70
0
43
0
10
86.03
20
-7.02
10
86.04
20
-7.17
10
86.07
20
-7.26
10
86.13
20
-7.34
10
86.20
20
-7.40
10
86.31
20
-7.45
10
86.42
20
-7.48
10
86.58
20
-7.48
10
86.75
20
-7.44
10
86.89
20
-7.38
10
87.06
20
-7.27
10
87.19
20
-7.14
10
87.28
20
-7.00
10
87.35
20
-6.84
10
87.89
20
-5.13
10
88.15
20
-4.45
10
88.47
20
-3.67
10
88.68
20
-3.10
10
88.70
20
-2.97
10
88.69
20
-2.86
10
88.65
20
-2.75
10
88.58
20
-2.66
10
88.50
20
-2.60
10
88.41
20
-2.57
10
88.27
20
-2.55
10
88.12
20
-2.55
10
87.95
20
-2.59
10
87.78
20
-2.67
10
87.64
20
-2.79
10
87.52
20
-2.90
10
87.44
20
-3.04
10
87.36
20
-3.25
10
87.20
20
-3.67
10
86.75
20
-4.79
10
86.53
20
-5.42
10
86.09
20
-6.81
10
86.04
20
-6.96
10
86.03
20
-7.02
0
LWPOLYLINE
5
75
100
AcDbEntity
8
0
6
ByLayer
62
256
370
-1
100
AcDbPolyline
90
32
70
0
43
0
10
88.09
20
-1.35
10
88.10
20
-1.49
10
88.15
20
-1.60
10
88.22
20
-1.69
10
88.30
20
-1.77
10
88.41
20
-1.82
10
88.54
20
-1.84
10
88.65
20
-1.85
10
88.70
20
-1.84
10
88.82
20
-1.83
10
88.99
20
-1.77
10
89.16
20
-1.67
10
89.34
20
-1.53
10
89.45
20
-1.40
10
89.54
20
-1.25
10
89.60
20
-1.08
10
89.61
20
-0.98
10
89.60
20
-0.86
10
89.56
20
-0.75
10
89.50
20
-0.66
10
89.40
20
-0.57
10
89.28
20
-0.51
10
89.15
20
-0.49
10
88.99
20
-0.49
10
88.84
20
-0.52
10
88.69
20
-0.58
10
88.53
20
-0.67
10
88.39
20
-0.78
10
88.26
20
-0.91
10
88.17
20
-1.05
10
88.12
20
-1.19
10
88.09
20
-1.32
10
88.09
20
-1.35
0
LWPOLYLINE
5
76
100
AcDbEntity
8
0
6
ByLayer
62
256
370
-1
100
AcDbPolyline
90
118
70
0
43
0
10
88.37
20
-6.82
10
88.38
20
-6.97
10
88.42
20
-7.09
10
88.48
20
-7.19
10
88.60
20
-7.30
10
88.77
20
-7.40
10
89.00
20
-7.49
10
89.26
20
-7.56
10
89.55
20
-7.60
10
89.77
20
-7.61
10
89.99
20
-7.62
10
90.04
20
-7.61
10
90.22
20
-7.61
10
90.26
20
-7.60
10
90.56
20
-7.57
10
90.91
20
-7.49
10
91.23
20
-7.38
10
91.47
20
-7.28
10
91.70
20
-7.16
10
91.93
20
-7.00
10
92.13
20
-6.83
10
92.29
20
-6.65
10
92.43
20
-6.45
10
92.56
20
-6.18
10
92.62
20
-5.98
10
92.64
20
-5.82
10
92.64
20
-5.66
10
92.60
20
-5.48
10
92.52
20
-5.30
10
92.40
20
-5.13
10
92.21
20
-4.94
10
91.93
20
-4.73
10
91.45
20
-4.45
10
91.09
20
-4.25
10
90.91
20
-4.12
10
90.83
20
-4.03
10
90.78
20
-3.94
10
90.79
20
-3.87
10
90.84
20
-3.80
10
90.95
20
-3.73
10
91.08
20
-3.67
10
91.29
20
-3.63
10
91.56
20
-3.60
10
91.84
20
-3.59
10
92.12
20
-3.59
10
92.17
20
-3.59
10
92.33
20
-3.61
10
92.35
20
-3.62
10
92.35
20
-3.70
10
92.37
20
-3.80
10
92.42
20
-3.88
10
92.49
20
-3.94
10
92.59
20
-3.98
10
92.74
20
-4.00
10
92.85
20
-3.99
10
92.97
20
-3.95
10
93.10
20
-3.87
10
93.21
20
-3.75
10
93.33
20
-3.56
10
93.44
20
-3.32
10
93.52
20
-3.08
10
93.55
20
-2.94
10
93.55
20
-2.88
10
93.55
20
-2.84
10
93.53
20
-2.75
10
93.48
20
-2.66
10
93.41
20
-2.59
10
93.29
20
-2.53
10
93.11
20
-2.48
10
92.91
20
-2.46
10
92.60
20
-2.46
10
92.18
20
-2.47
10
92.14
20
-2.48
10
91.83
20
-2.49
10
91.75
20
-2.50
10
91.48
20
-2.53
10
91.11
20
-2.60
10
90.81
20
-2.69
10
90.53
20
-2.81
10
90.30
20
-2.94
10
90.10
20
-3.08
10
89.88
20
-3.31
10
89.73
20
-3.51
10
89.62
20
-3.72
10
89.53
20
-3.96
10
89.50
20
-4.14
10
89.49
20
-4.28
10
89.49
20
-4.32
10
89.50
20
-4.45
10
89.56
20
-4.62
10
89.65
20
-4.80
10
89.79
20
-4.96
10
89.93
20
-5.07
10
90.22
20
-5.26
10
90.79
20
-5.57
10
91.01
20
-5.69
10
91.17
20
-5.81
10
91.26
20
-5.90
10
91.30
20
-5.98
10
91.31
20
-6.05
10
91.29
20
-6.13
10
91.23
20
-6.23
10
91.14
20
-6.30
10
91.01
20
-6.37
10
90.80
20
-6.43
10
90.55
20
-6.47
10
90.26
20
-6.48
10
90.13
20
-6.47
10
89.89
20
-6.42
10
89.43
20
-6.26
10
89.22
20
-6.22
10
89.03
20
-6.21
10
88.87
20
-6.24
10
88.74
20
-6.28
10
88.62
20
-6.35
10
88.51
20
-6.47
10
88.43
20
-6.61
10
88.38
20
-6.78
10
88.37
20
-6.82
0
LWPOLYLINE
5
77
100
AcDbEntity
8
0
6
ByLayer
62
256
370
-1
100
AcDbPolyline
90
83
70
0
43
0
10
94.17
20
-3.21
10
94.17
20
-3.34
10
94.21
20
-3.44
10
94.27
20
-3.52
10
94.37
20
-3.58
10
94.51
20
-3.63
10
95.07
20
-3.69
10
95.38
20
-3.71
10
95.41
20
-3.71
10
95.39
20
-3.79
10
94.85
20
-5.60
10
94.63
20
-6.27
10
94.33
20
-7.07
10
94.31
20
-7.17
10
94.30
20
-7.27
10
94.32
20
-7.37
10
94.38
20
-7.47
10
94.48
20
-7.55
10
94.60
20
-7.61
10
94.70
20
-7.63
10
94.81
20
-7.64
10
94.85
20
-7.63
10
94.99
20
-7.61
10
95.11
20
-7.56
10
95.24
20
-7.48
10
95.37
20
-7.37
10
95.51
20
-7.19
10
95.63
20
-6.99
10
95.73
20
-6.76
10
95.87
20
-6.38
10
96.06
20
-5.77
10
96.39
20
-4.72
10
96.69
20
-3.70
10
96.71
20
-3.68
10
97.03
20
-3.65
10
97.32
20
-3.65
10
97.36
20
-3.66
10
97.64
20
-3.66
10
97.81
20
-3.63
10
97.96
20
-3.58
10
98.09
20
-3.49
10
98.21
20
-3.39
10
98.31
20
-3.28
10
98.40
20
-3.13
10
98.46
20
-2.96
10
98.47
20
-2.81
10
98.46
20
-2.71
10
98.42
20
-2.62
10
98.33
20
-2.53
10
98.21
20
-2.48
10
98.05
20
-2.45
10
97.82
20
-2.43
10
97.45
20
-2.42
10
97.41
20
-2.43
10
97.14
20
-2.45
10
97.09
20
-2.46
10
97.12
20
-2.36
10
97.25
20
-2.00
10
97.33
20
-1.71
10
97.36
20
-1.49
10
97.36
20
-1.32
10
97.33
20
-1.19
10
97.27
20
-1.09
10
97.19
20
-1.01
10
97.07
20
-0.97
10
96.92
20
-0.95
10
96.76
20
-0.97
10
96.59
20
-1.02
10
96.44
20
-1.10
10
96.31
20
-1.20
10
96.20
20
-1.32
10
96.10
20
-1.48
10
96.00
20
-1.80
10
95.80
20
-2.48
10
95.21
20
-2.43
10
94.97
20
-2.43
10
94.80
20
-2.46
10
94.66
20
-2.52
10
94.52
20
-2.62
10
94.42
20
-2.71
10
94.30
20
-2.86
10
94.21
20
-3.04
10
94.18
20
-3.18
10
94.17
20
-3.21
0
LWPOLYLINE
5
78
100
AcDbEntity
8
0
6
ByLayer
62
256
370
-1
100
AcDbPolyline
90
73
70
0
43
0
10
97.62
20
-7.26
10
97.63
20
-7.37
10
97.68
20
-7.48
10
97.74
20
-7.55
10
97.83
20
-7.61
10
97.95
20
-7.64
10
98.12
20
-7.65
10
98.27
20
-7.62
10
98.44
20
-7.55
10
98.60
20
-7.45
10
98.75
20
-7.29
10
98.84
20
-7.15
10
98.93
20
-6.92
10
99.66
20
-4.75
10
99.82
20
-4.57
10
99.98
20
-4.41
10
100.26
20
-4.18
10
100.51
20
-4.02
10
100.79
20
-3.89
10
101.06
20
-3.79
10
101.33
20
-3.72
10
101.48
20
-3.69
10
101.46
20
-3.77
10
101.31
20
-4.29
10
101.30
20
-4.44
10
101.32
20
-4.55
10
101.38
20
-4.64
10
101.47
20
-4.70
10
101.57
20
-4.73
10
101.71
20
-4.75
10
101.85
20
-4.74
10
102.01
20
-4.70
10
102.18
20
-4.62
10
102.31
20
-4.51
10
102.42
20
-4.39
10
102.54
20
-4.20
10
102.64
20
-3.94
10
102.79
20
-3.51
10
102.83
20
-3.27
10
102.84
20
-3.08
10
102.83
20
-2.94
10
102.79
20
-2.80
10
102.72
20
-2.70
10
102.63
20
-2.62
10
102.50
20
-2.56
10
102.36
20
-2.53
10
102.18
20
-2.52
10
102.14
20
-2.52
10
101.94
20
-2.53
10
101.90
20
-2.53
10
101.63
20
-2.57
10
101.25
20
-2.66
10
100.90
20
-2.78
10
100.56
20
-2.93
10
100.22
20
-3.11
10
100.22
20
-3.11
10
100.22
20
-2.93
10
100.19
20
-2.81
10
100.13
20
-2.72
10
100.05
20
-2.66
10
99.95
20
-2.62
10
99.83
20
-2.60
10
99.78
20
-2.60
10
99.74
20
-2.60
10
99.61
20
-2.62
10
99.47
20
-2.66
10
99.33
20
-2.74
10
99.22
20
-2.84
10
99.12
20
-2.95
10
99.02
20
-3.11
10
98.64
20
-4.17
10
97.64
20
-7.11
10
97.62
20
-7.22
10
97.62
20
-7.26
0
LWPOLYLINE
5
79
100
AcDbEntity
8
0
6
ByLayer
62
256
370
-1
100
AcDbPolyline
90
36
70
0
43
0
10
102.61
20
-7.01
10
102.61
20
-7.14
10
102.64
20
-7.26
10
102.71
20
-7.35
10
102.80
20
-7.42
10
102.88
20
-7.45
10
103.00
20
-7.48
10
103.15
20
-7.48
10
103.32
20
-7.44
10
103.48
20
-7.38
10
103.64
20
-7.27
10
103.78
20
-7.12
10
103.87
20
-6.98
10
103.94
20
-6.78
10
104.45
20
-5.18
10
104.71
20
-4.49
10
105.06
20
-3.65
10
105.24
20
-3.13
10
105.27
20
-2.98
10
105.27
20
-2.86
10
105.23
20
-2.76
10
105.17
20
-2.67
10
105.07
20
-2.60
10
104.97
20
-2.56
10
104.82
20
-2.55
10
104.70
20
-2.55
10
104.55
20
-2.59
10
104.39
20
-2.66
10
104.23
20
-2.77
10
104.10
20
-2.91
10
104.01
20
-3.04
10
103.94
20
-3.24
10
103.77
20
-3.69
10
103.33
20
-4.79
10
103.14
20
-5.31
10
102.64
20
-6.89
10
102.61
20
-7.01
0
LWPOLYLINE
5
80
100
AcDbEntity
8
0
6
ByLayer
62
256
370
-1
100
AcDbPolyline
90
32
70
0
43
0
10
104.66
20
-1.33
10
104.67
20
-1.46
10
104.70
20
-1.56
10
104.76
20
-1.66
10
104.86
20
-1.76
10
104.97
20
-1.81
10
105.10
20
-1.84
10
105.23
20
-1.85
10
105.27
20
-1.84
10
105.42
20
-1.82
10
105.58
20
-1.76
10
105.75
20
-1.67
10
105.89
20
-1.56
10
106.01
20
-1.43
10
106.10
20
-1.29
10
106.16
20
-1.15
10
106.18
20
-1.00
10
106.18
20
-0.87
10
106.14
20
-0.75
10
106.06
20
-0.64
10
105.96
20
-0.56
10
105.83
20
-0.51
10
105.71
20
-0.49
10
105.56
20
-0.49
10
105.38
20
-0.53
10
105.21
20
-0.61
10
105.05
20
-0.71
10
104.90
20
-0.84
10
104.79
20
-0.98
10
104.72
20
-1.12
10
104.67
20
-1.29
10
104.67
20
-1.33
10
104.66
20
-1.33
0
LWPOLYLINE
5
81
100
AcDbEntity
8
0
6
ByLayer
62
256
370
-1
100
AcDbPolyline
90
88
70
0
43
0
10
105.25
20
-6.09
10
105.26
20
-6.28
10
105.30
20
-6.48
10
105.36
20
-6.67
10
105.45
20
-6.84
10
105.56
20
-6.98
10
105.69
20
-7.11
10
105.89
20
-7.25
10
106.10
20
-7.36
10
106.35
20
-7.45
10
106.62
20
-7.51
10
106.86
20
-7.54
10
107.06
20
-7.55
10
107.28
20
-7.55
10
107.32
20
-7.55
10
107.52
20
-7.54
10
107.56
20
-7.54
10
107.82
20
-7.51
10
108.17
20
-7.44
10
108.56
20
-7.32
10
108.89
20
-7.19
10
109.15
20
-7.06
10
109.38
20
-6.90
10
109.57
20
-6.71
10
109.67
20
-6.55
10
109.73
20
-6.42
10
109.77
20
-6.27
10
109.76
20
-6.15
10
109.73
20
-6.07
10
109.66
20
-6.02
10
109.56
20
-5.97
10
109.44
20
-5.96
10
109.30
20
-5.97
10
109.09
20
-6.03
10
108.82
20
-6.14
10
108.54
20
-6.27
10
108.27
20
-6.35
10
108.00
20
-6.41
10
107.76
20
-6.43
10
107.50
20
-6.44
10
107.45
20
-6.43
10
107.30
20
-6.42
10
107.07
20
-6.37
10
106.90
20
-6.31
10
106.77
20
-6.23
10
106.67
20
-6.15
10
106.58
20
-6.05
10
106.53
20
-5.97
10
106.54
20
-5.96
10
108.70
20
-5.13
10
109.26
20
-4.89
10
109.53
20
-4.75
10
109.78
20
-4.59
10
109.99
20
-4.41
10
110.13
20
-4.27
10
110.26
20
-4.10
10
110.34
20
-3.94
10
110.40
20
-3.73
10
110.43
20
-3.55
10
110.43
20
-3.39
10
110.40
20
-3.24
10
110.33
20
-3.10
10
110.25
20
-3.00
10
110.14
20
-2.89
10
109.98
20
-2.79
10
109.77
20
-2.70
10
109.53
20
-2.63
10
109.27
20
-2.59
10
109.06
20
-2.57
10
108.77
20
-2.56
10
108.72
20
-2.56
10
108.53
20
-2.57
10
108.41
20
-2.59
10
108.19
20
-2.62
10
107.89
20
-2.70
10
107.64
20
-2.80
10
107.30
20
-2.97
10
106.99
20
-3.18
10
106.71
20
-3.41
10
106.44
20
-3.67
10
106.18
20
-3.96
10
105.93
20
-4.29
10
105.73
20
-4.63
10
105.54
20
-5.01
10
105.38
20
-5.42
10
105.30
20
-5.72
10
105.27
20
-5.96
10
105.26
20
-6.08
10
105.25
20
-6.09
0
LWPOLYLINE
5
82
100
AcDbEntity
8
0
6
ByLayer
62
256
370
-1
100
AcDbPolyline
90
20
70
0
43
0
10
109.14
20
-3.83
10
109.09
20
-3.80
10
108.96
20
-3.74
10
108.77
20
-3.70
10
108.61
20
-3.68
10
108.40
20
-3.67
10
108.36
20
-3.67
10
108.25
20
-3.68
10
108.04
20
-3.73
10
107.84
20
-3.81
10
107.62
20
-3.93
10
107.40
20
-4.11
10
107.20
20
-4.31
10
106.96
20
-4.60
10
106.84
20
-4.78
10
106.84
20
-4.79
10
108.20
20
-4.28
10
108.78
20
-4.03
10
109.13
20
-3.85
10
109.14
20
-3.84
10
109.14
20
-3.83
0
LWPOLYLINE
5
83
100
AcDbEntity
8
0
6
ByLayer
62
256
370
-1
100
AcDbPolyline
90
73
70
0
43
0
10
110.35
20
-7.26
10
110.36
20
-7.37
10
110.40
20
-7.48
10
110.46
20
-7.55
10
110.56
20
-7.61
10
110.67
20
-7.64
10
110.85
20
-7.65
10
111.00
20
-7.62
10
111.16
20
-7.55
10
111.32
20
-7.45
10
111.48
20
-7.29
10
111.57
20
-7.15
10
111.66
20
-6.92
10
112.39
20
-4.75
10
112.55
20
-4.57
10
112.71
20
-4.41
10
112.98
20
-4.18
10
113.24
20
-4.02
10
113.52
20
-3.89
10
113.79
20
-3.79
10
114.06
20
-3.72
10
114.21
20
-3.69
10
114.19
20
-3.77
10
114.04
20
-4.29
10
114.03
20
-4.44
10
114.05
20
-4.55
10
114.11
20
-4.64
10
114.20
20
-4.70
10
114.30
20
-4.73
10
114.44
20
-4.75
10
114.58
20
-4.74
10
114.73
20
-4.70
10
114.90
20
-4.62
10
115.04
20
-4.51
10
115.14
20
-4.39
10
115.27
20
-4.20
10
115.37
20
-3.94
10
115.51
20
-3.51
10
115.56
20
-3.27
10
115.57
20
-3.08
10
115.56
20
-2.94
10
115.51
20
-2.80
10
115.45
20
-2.70
10
115.36
20
-2.62
10
115.23
20
-2.56
10
115.09
20
-2.53
10
114.90
20
-2.52
10
114.86
20
-2.52
10
114.66
20
-2.53
10
114.62
20
-2.53
10
114.35
20
-2.57
10
113.98
20
-2.66
10
113.62
20
-2.78
10
113.28
20
-2.93
10
112.95
20
-3.11
10
112.94
20
-3.11
10
112.95
20
-2.93
10
112.92
20
-2.81
10
112.86
20
-2.72
10
112.78
20
-2.66
10
112.67
20
-2.62
10
112.56
20
-2.60
10
112.50
20
-2.60
10
112.46
20
-2.60
10
112.34
20
-2.62
10
112.19
20
-2.66
10
112.06
20
-2.74
10
111.94
20
-2.84
10
111.84
20
-2.95
10
111.75
20
-3.11
10
111.36
20
-4.17
10
110.37
20
-7.11
10
110.35
20
-7.22
10
110.35
20
-7.26
0
LWPOLYLINE
5
84
100
AcDbEntity
8
0
6
ByLayer
62
256
370
-1
100
AcDbPolyline
90
84
70
0
43
0
10
116.07
20
-3.25
10
116.09
20
-3.38
10
116.13
20
-3.46
10
116.21
20
-3.55
10
116.30
20
-3.59
10
116.45
20
-3.63
10
117.05
20
-3.69
10
117.30
20
-3.71
10
117.32
20
-3.71
10
117.27
20
-3.91
10
116.73
20
-5.69
10
116.53
20
-6.28
10
116.23
20
-7.08
10
116.21
20
-7.20
10
116.21
20
-7.31
10
116.25
20
-7.41
10
116.33
20
-7.51
10
116.44
20
-7.59
10
116.56
20
-7.62
10
116.70
20
-7.64
10
116.85
20
-7.62
10
117.00
20
-7.57
10
117.14
20
-7.49
10
117.27
20
-7.37
10
117.39
20
-7.23
10
117.53
20
-7.00
10
117.65
20
-6.75
10
117.80
20
-6.30
10
118.17
20
-5.14
10
118.39
20
-4.38
10
118.60
20
-3.69
10
118.79
20
-3.66
10
118.96
20
-3.65
10
119.23
20
-3.65
10
119.27
20
-3.66
10
119.55
20
-3.66
10
119.71
20
-3.63
10
119.85
20
-3.58
10
120.00
20
-3.49
10
120.15
20
-3.36
10
120.25
20
-3.24
10
120.32
20
-3.10
10
120.37
20
-2.93
10
120.38
20
-2.80
10
120.36
20
-2.68
10
120.30
20
-2.59
10
120.21
20
-2.52
10
120.09
20
-2.47
10
119.90
20
-2.44
10
119.71
20
-2.43
10
119.40
20
-2.42
10
119.10
20
-2.45
10
118.99
20
-2.46
10
119.00
20
-2.42
10
119.15
20
-2.03
10
119.23
20
-1.73
10
119.26
20
-1.53
10
119.26
20
-1.34
10
119.24
20
-1.22
10
119.19
20
-1.11
10
119.10
20
-1.02
10
119.00
20
-0.97
10
118.89
20
-0.95
10
118.82
20
-0.95
10
118.78
20
-0.95
10
118.67
20
-0.97
10
118.50
20
-1.02
10
118.34
20
-1.11
10
118.19
20
-1.22
10
118.09
20
-1.35
10
118.00
20
-1.49
10
117.88
20
-1.88
10
117.74
20
-2.38
10
117.71
20
-2.48
10
117.13
20
-2.43
10
116.88
20
-2.43
10
116.71
20
-2.46
10
116.57
20
-2.52
10
116.43
20
-2.62
10
116.30
20
-2.73
10
116.20
20
-2.87
10
116.13
20
-3.02
10
116.09
20
-3.17
10
116.08
20
-3.25
10
116.07
20
-3.25
0
ENDSEC
0
SECTION
2
OBJECTS
0
DICTIONARY
5
C
330
0
100
AcDbDictionary
281
1
3
ACAD_GROUP
350
D
0
DICTIONARY
5
D
330
C
100
AcDbDictionary
281
1
0
ENDSEC
0
EOF
